<?xml version="1.0" encoding="UTF-8" standalone="no"?>
<!-- Created with Inkscape (http://www.inkscape.org/) -->

<svg
   xmlns:dc="http://purl.org/dc/elements/1.1/"
   xmlns:cc="http://creativecommons.org/ns#"
   xmlns:rdf="http://www.w3.org/1999/02/22-rdf-syntax-ns#"
   xmlns:svg="http://www.w3.org/2000/svg"
   xmlns="http://www.w3.org/2000/svg"
   xmlns:sodipodi="http://sodipodi.sourceforge.net/DTD/sodipodi-0.dtd"
   xmlns:inkscape="http://www.inkscape.org/namespaces/inkscape"
   id="svg4155"
   version="1.1"
   inkscape:version="0.91 r13725"
   xml:space="preserve"
   width="1024"
   height="1024"
   viewBox="0 0 1024 1024"
   sodipodi:docname="OpenSimWatermarkOpaqueGrayscale.svg"
   inkscape:export-filename="/Users/chris/repos/opensim-gui/icons/OpenSimWatermarkOpaqueGrayscale.png"
   inkscape:export-xdpi="90"
   inkscape:export-ydpi="90"><metadata
     id="metadata4161"><rdf:RDF><cc:Work
         rdf:about=""><dc:format>image/svg+xml</dc:format><dc:type
           rdf:resource="http://purl.org/dc/dcmitype/StillImage" /><dc:title /></cc:Work></rdf:RDF></metadata><defs
     id="defs4159"><clipPath
       clipPathUnits="userSpaceOnUse"
       id="clipPath4173"><path
         d="M 0,612 792,612 792,0 0,0 0,612 Z"
         id="path4175"
         inkscape:connector-curvature="0" /></clipPath><filter
       style="color-interpolation-filters:sRGB;"
       inkscape:label="Greyscale"
       id="filter4252"><feColorMatrix
         values="0.21 0.72 0.072 0 0 0.21 0.72 0.072 0 0 0.21 0.72 0.072 0 0 0 0 0 1 0 "
         id="feColorMatrix4254" /></filter></defs><sodipodi:namedview
     pagecolor="#ffffff"
     bordercolor="#666666"
     borderopacity="1"
     objecttolerance="10"
     gridtolerance="10"
     guidetolerance="10"
     inkscape:pageopacity="0"
     inkscape:pageshadow="2"
     inkscape:window-width="1324"
     inkscape:window-height="798"
     id="namedview4157"
     showgrid="false"
     inkscape:zoom="0.52342251"
     inkscape:cx="-43.045752"
     inkscape:cy="519.82281"
     inkscape:window-x="0"
     inkscape:window-y="0"
     inkscape:window-maximized="0"
     inkscape:current-layer="g4163" /><g
     id="g4163"
     inkscape:groupmode="layer"
     inkscape:label="OpenSimLogo"
     transform="matrix(1.25,0,0,-1.25,0,1024)"><g
       style="filter:url(#filter4252)"
       id="g4377"
       transform="matrix(10.156095,0,0,10.156095,147.15124,442.57297)"><path
         d="m 0,0 c 0,-3.978 0.59,-7.794 1.764,-11.449 1.172,-3.654 2.868,-6.87 5.087,-9.643 2.219,-2.773 4.929,-4.991 8.126,-6.654 3.196,-1.663 6.815,-2.496 10.863,-2.496 4.047,0 7.668,0.833 10.867,2.496 3.195,1.663 5.903,3.881 8.123,6.654 2.219,2.773 3.915,5.989 5.088,9.643 1.178,3.655 1.762,7.471 1.762,11.449 0,3.982 -0.584,7.804 -1.762,11.455 -1.173,3.653 -2.869,6.866 -5.088,9.638 -2.22,2.777 -4.928,4.996 -8.123,6.659 -3.199,1.66 -6.82,2.496 -10.867,2.496 -4.048,0 -7.667,-0.836 -10.863,-2.496 C 11.78,26.089 9.07,23.87 6.851,21.093 4.632,18.321 2.936,15.108 1.764,11.455 0.59,7.804 0,3.982 0,0 m -10.375,0 c 0,5.289 0.965,10.016 2.888,14.195 1.922,4.174 4.514,7.715 7.783,10.619 3.263,2.907 7.096,5.121 11.503,6.654 4.399,1.536 9.082,2.304 14.041,2.304 4.96,0 9.644,-0.768 14.046,-2.304 4.408,-1.533 8.235,-3.747 11.502,-6.654 3.268,-2.904 5.857,-6.445 7.781,-10.619 1.92,-4.179 2.889,-8.906 2.889,-14.195 0,-5.282 -0.969,-10.015 -2.889,-14.188 -1.924,-4.18 -4.513,-7.722 -7.781,-10.621 -3.267,-2.905 -7.094,-5.124 -11.502,-6.66 -4.402,-1.528 -9.086,-2.297 -14.046,-2.297 -4.959,0 -9.642,0.769 -14.041,2.297 -4.407,1.536 -8.24,3.755 -11.503,6.66 -3.269,2.899 -5.861,6.441 -7.783,10.621 -1.923,4.173 -2.888,8.906 -2.888,14.188"
         style="fill:#7799cf;fill-opacity:1;fill-rule:nonzero;stroke:none"
         id="path4379"
         inkscape:connector-curvature="0" /></g><g
       style="filter:url(#filter4252);fill:#8b8d90;fill-opacity:1"
       id="g4385"
       transform="matrix(10.156095,0,0,10.156095,502.80855,477.0783)"><path
         d="m 0,0 c 0.314,-2.509 -1.377,-9.349 -2.021,-11.58 -0.375,-1.304 -0.991,-3.511 -1.414,-5.285 -0.005,-0.017 -0.014,-0.022 -0.02,-0.039 -0.224,-0.67 -0.512,-0.407 -0.511,0.312 0.541,2.019 1.653,6.007 2.24,8.591 0.737,3.241 1.861,10.109 0.698,9.104 0,0 -1.702,-2.414 -3.076,-5.56 0.015,0.044 0.022,0.092 0.037,0.136 -0.1,-0.222 -0.232,-0.554 -0.384,-0.966 C -4.46,-5.309 -4.47,-5.33 -4.479,-5.353 -4.497,-5.4 -4.514,-5.455 -4.532,-5.505 -5.896,-9.242 -8.78,-18.746 -7.977,-20.049 c 0,0 0.417,-0.838 0.197,-2.406 -0.032,-0.028 -0.061,-0.048 -0.095,-0.094 -1.028,-1.384 -1.113,-4.576 -0.804,-5.212 -0.069,-0.735 -0.096,-1.418 -0.04,-1.952 -0.083,-1.244 -0.247,-4.059 -0.307,-5.267 -0.358,-0.503 -0.481,-0.674 -0.481,-0.893 -0.251,-0.122 -0.496,-0.348 -0.698,-0.448 -0.074,-0.037 -0.239,-0.365 -0.365,-0.644 -0.168,-0.373 -0.263,-1.3 -0.211,-1.866 -0.075,-0.189 -0.144,-0.358 -0.193,-0.468 -0.081,-0.182 -0.844,-1.408 -1.288,-1.891 -0.432,-0.472 -0.71,-1.707 -0.645,-1.951 -0.162,-0.494 -0.178,-1.862 -0.281,-2.422 -0.107,-0.591 0.806,-0.698 0.806,-0.698 0,0 0.289,0.25 0.438,0.2 0.281,-0.093 0.448,0.082 0.527,0.445 0.063,0.278 0.339,1.099 0.463,1.391 0.031,0 0.058,-0.014 0.08,-0.04 0.033,-0.207 0.093,-0.559 -0.1,-1.07 -0.242,-0.644 0.537,-0.272 0.748,0.149 0.125,0.25 0.258,0.132 0.377,0.253 0.124,0.12 0.717,0.122 0.811,0.747 0.229,0.104 0.477,1.768 0.5,2 0.078,0.275 0.144,0.668 0.179,0.916 0.202,0.522 1.006,1.971 1.006,2.415 0,0.01 -0.003,0.013 -0.003,0.023 0.251,0.51 0.474,1.004 0.568,1.427 0.162,0.241 0.125,1.501 -0.01,1.986 0.297,0.972 0.745,2.273 1.165,3.395 0.593,1.589 3.209,8.162 2.141,10.501 0.037,1.277 -0.043,1.617 0.444,3.008 0.8,1.515 2.033,4.44 3.097,7.72 C 1.734,-5.592 0.173,3.377 0.173,3.377 -0.17,4.274 -0.314,2.507 0,0"
         style="fill:#8b8d90;fill-opacity:1;fill-rule:nonzero;stroke:none"
         id="path4387"
         inkscape:connector-curvature="0" /></g><g
       style="filter:url(#filter4252);fill:#8b8d90;fill-opacity:1"
       id="g4389"
       transform="matrix(10.156095,0,0,10.156095,343.03794,353.36995)"><path
         d="m 0,0 c -0.328,-0.149 -1.044,-0.715 -1.928,-1.382 -0.883,-0.668 -2.528,-1.63 -1.828,-1.6 0,0 2.424,0.237 3.165,1.446 C 0.148,-0.327 0.328,0.149 0,0"
         style="fill:#8b8d90;fill-opacity:1;fill-rule:nonzero;stroke:none"
         id="path4391"
         inkscape:connector-curvature="0" /></g><g
       style="filter:url(#filter4252);fill:#8b8d90;fill-opacity:1"
       id="g4393"
       transform="matrix(10.156095,0,0,10.156095,303.03816,635.61799)"><path
         d="M 0,0 C 0.126,0.037 0.264,0.132 0.407,0.246 0.975,0.332 1.748,0.55 2.041,0.734 2.38,0.948 4.593,2.335 4.195,2.43 3.918,2.495 4.262,2.852 4.393,3.043 4.948,3.343 5.21,3.602 4.639,3.621 3.58,3.658 1.798,2.997 0.872,1.821 0.409,1.234 0.008,0.727 -0.187,0.391 -0.197,0.377 -0.214,0.36 -0.221,0.35 -0.229,0.337 -0.216,0.332 -0.22,0.321 -0.367,0.038 -0.338,-0.1 0,0"
         style="fill:#8b8d90;fill-opacity:1;fill-rule:nonzero;stroke:none"
         id="path4395"
         inkscape:connector-curvature="0" /></g><g
       style="filter:url(#filter4252);fill:#8b8d90;fill-opacity:1"
       id="g4397"
       transform="matrix(10.156095,0,0,10.156095,477.94338,692.86485)"><path
         d="M 0,0 C 0.763,0.104 2.488,-0.564 3.417,-0.366 4.142,-0.211 4.901,-0.011 4.785,0.229 4.793,0.227 4.8,0.227 4.808,0.224 4.808,0.224 4.78,0.24 4.771,0.246 4.732,0.306 4.649,0.366 4.489,0.43 4.275,0.571 3.994,0.763 3.748,0.955 3.291,1.313 1.977,1.261 1.382,1.188 0.875,1.125 0.324,0.973 0.021,0.794 -0.17,0.736 -0.338,0.663 -0.474,0.567 -1.083,0.138 -0.761,-0.104 0,0"
         style="fill:#8b8d90;fill-opacity:1;fill-rule:nonzero;stroke:none"
         id="path4399"
         inkscape:connector-curvature="0" /></g><g
       style="filter:url(#filter4252);fill:#8b8d90;fill-opacity:1"
       id="g4401"
       transform="matrix(10.156095,0,0,10.156095,436.10941,678.63311)"><path
         d="M 0,0 C 0.417,-0.113 1.937,0.662 1.922,0.937 1.909,1.208 1.604,0.982 0.967,1.074 0.327,1.165 0.22,1.974 0.22,1.974 0.098,1.504 -0.419,0.115 0,0"
         style="fill:#8b8d90;fill-opacity:1;fill-rule:nonzero;stroke:none"
         id="path4403"
         inkscape:connector-curvature="0" /></g><g
       style="filter:url(#filter4252);fill:#8b8d90;fill-opacity:1"
       id="g4405"
       transform="matrix(10.156095,0,0,10.156095,404.30154,385.44493)"><path
         d="m 0,0 c -0.035,-0.047 -0.078,-0.108 -0.123,-0.177 -0.626,-0.475 -1.863,-2.139 -1.863,-2.41 0,-0.321 -0.32,-0.751 -0.32,-0.751 l -0.109,-0.43 c 0,0 0.216,-0.428 0.537,-0.214 0.322,0.215 0.43,0.752 0.484,1.288 0.049,0.52 0.451,0.981 0.774,1.009 0.036,-0.018 0.074,-0.037 0.137,-0.032 0.644,0.055 1.448,0.752 1.178,1.235 C 0.428,0 0.161,0.216 0,0"
         style="fill:#8b8d90;fill-opacity:1;fill-rule:nonzero;stroke:none"
         id="path4407"
         inkscape:connector-curvature="0" /></g><g
       style="filter:url(#filter4252);fill:#8b8d90;fill-opacity:1"
       id="g4409"
       transform="matrix(10.156095,0,0,10.156095,355.36642,792.47177)"><path
         d="M 0,0 C 0.471,0.11 0.942,0.94 1.495,1.163 2.049,1.384 4.319,1.771 3.738,1.827 3.457,1.854 1.799,2.048 1.413,1.771 1.024,1.495 0.859,1.107 0.556,1.107 0.25,1.107 -0.747,0.969 -0.526,1.356 -0.304,1.743 -0.665,1.8 -0.83,1.606 -0.997,1.412 -1.134,0.775 -0.939,0.498 -0.747,0.221 -0.471,-0.111 0,0"
         style="fill:#8b8d90;fill-opacity:1;fill-rule:nonzero;stroke:none"
         id="path4411"
         inkscape:connector-curvature="0" /></g><g
       style="filter:url(#filter4252);fill:#8b8d90;fill-opacity:1"
       id="g4413"
       transform="matrix(10.156095,0,0,10.156095,427.9561,780.50078)"><path
         d="m 0,0 c 0.167,-0.138 0.333,-0.471 0.333,-0.471 0,0 0.386,0.831 0.083,1.524 C 0.112,1.745 0.138,0.443 -0.056,1.356 -0.248,2.271 -0.498,1.911 -0.748,2.159 -0.996,2.41 -0.94,2.05 -0.748,1.688 -0.748,1.688 -0.167,0.14 0,0"
         style="fill:#8b8d90;fill-opacity:1;fill-rule:nonzero;stroke:none"
         id="path4415"
         inkscape:connector-curvature="0" /></g><g
       style="filter:url(#filter4252);fill:#8b8d90;fill-opacity:1"
       id="g4417"
       transform="matrix(10.156095,0,0,10.156095,500.81491,681.21175)"><path
         d="M 0,0 C -0.472,0.079 -2.326,0.943 -3.367,0.494 -4.408,0.045 -5.576,-0.49 -6.074,-0.74 -6.573,-0.99 -5.076,-1.487 -3.265,-1 -1.453,-0.514 0.521,-0.087 0,0"
         style="fill:#8b8d90;fill-opacity:1;fill-rule:nonzero;stroke:none"
         id="path4419"
         inkscape:connector-curvature="0" /></g><g
       style="filter:url(#filter4252);fill:#8b8d90;fill-opacity:1"
       id="g4421"
       transform="matrix(10.156095,0,0,10.156095,486.02662,647.49961)"><path
         d="m 0,0 c -0.52,-0.623 -1.859,-2.231 -2.976,-2.338 -1.116,-0.106 -1.541,-0.318 -1.647,0.638 -0.106,0.956 0.478,0.637 0.16,1.062 -0.319,0.426 -1.116,0.479 -1.01,1.01 0.107,0.531 0.266,0.691 0.16,1.01 C -5.42,1.7 -5.154,1.86 -4.782,1.647 -4.41,1.435 -2.338,1.382 -1.541,1.7 -0.744,2.02 -1.68,1.409 -1.859,1.169 -2.179,0.744 -1.67,0.646 -1.42,0.907 -0.713,1.645 0.9,2.704 1.98,2.889 3.06,3.073 4.111,2.888 3.732,2.81 2.171,2.488 1.956,2.571 1.799,1.89 1.641,1.209 1.131,1.193 0.594,0.756 0.319,0.531 0.266,0.319 0,0"
         style="fill:#8b8d90;fill-opacity:1;fill-rule:nonzero;stroke:none"
         id="path4423"
         inkscape:connector-curvature="0" /></g><g
       style="filter:url(#filter4252);fill:#8b8d90;fill-opacity:1"
       id="g4425"
       transform="matrix(10.156095,0,0,10.156095,508.94689,644.85191)"><path
         d="m 0,0 c -0.027,0.05 -0.052,0.081 -0.074,0.102 -0.002,0.022 0.115,1.42 0.053,1.525 -0.25,0.416 -0.779,-0.976 -1.078,-1.259 -0.297,-0.283 -1.645,-1.993 -2.005,-2.2 -0.292,-0.166 1.638,-0.92 1.63,-1.272 -0.005,-0.353 -0.456,-0.616 -0.533,-0.726 -0.056,0.083 -0.289,0.178 -0.575,0.257 0.022,0.023 -0.365,0.593 -0.791,0.646 -0.24,0.03 -1.753,0.266 -2.656,0.212 -0.904,-0.053 -1.807,-0.69 -1.488,-0.956 0.083,-0.069 -2.895,0.094 -1.754,0.793 0.26,0.038 0.503,0.053 0.738,0.033 0.644,-0.052 -0.15,1.077 -0.025,1.39 0.007,0.017 -0.002,0.03 -0.002,0.046 0.2,0.236 0.116,1.237 -0.133,1.57 -0.323,0.43 -0.574,0.254 -1.646,0.04 -1.075,-0.214 -0.663,0.175 -0.072,0.39 0.591,0.214 1.395,1.127 0.857,1.341 -0.081,0.032 -0.206,0.024 -0.348,0 0.173,0.082 0.339,0.17 0.498,0.271 0.082,-0.012 0.456,0.322 0.588,0.438 0.043,-0.305 0.18,-0.365 0.413,0.118 0.426,0.883 1.018,2.002 1.115,3.122 0.096,1.123 0.039,1.579 -0.084,1.281 0,0 -0.671,-1.456 -1.08,-2.569 -0.388,-0.002 -0.518,0.629 -0.316,0.983 0.143,0.25 0.081,0.599 0.002,0.855 0.294,0.178 0.542,0.395 0.717,0.676 0.434,0.706 0.768,1.247 0.456,2.203 -0.221,0.674 0.186,0.997 0.186,0.997 0,0 -0.186,2.428 -0.705,1.971 0,0 -0.634,0.874 -0.894,1.426 -0.222,0.472 -0.374,1.461 -0.892,1.773 -0.501,0.301 -2.138,0.477 -3.342,-0.187 -0.409,-0.225 -1.339,-1.098 -1.475,-1.552 -0.136,-0.454 -0.711,-2.442 -1.318,-2.22 -0.611,0.22 -0.334,0.609 -0.169,0.525 0.169,-0.083 0.306,0.111 0.306,0.111 l 0.027,0.498 c 0,0 -1.3,-0.026 -0.967,-1.024 0.332,-0.996 0.469,-0.83 1.024,-1.024 0.553,-0.194 0.774,1.135 0.774,0.609 0,-0.526 -0.499,-0.886 -0.138,-1.219 0.36,-0.331 0.83,0.194 0.748,-0.249 -0.083,-0.442 -0.748,-1.883 -0.581,-2.242 0.165,-0.36 0.468,-0.637 0.442,-0.027 -0.028,0.608 0.166,0.553 0.277,0.442 0.11,-0.11 0.221,-0.775 0.442,-0.887 0.221,-0.109 0.361,0.333 0.638,0.388 0.256,0.053 0.371,0.025 0.521,-0.489 0.004,-0.052 0.713,-1.271 0.717,-2.155 -0.023,-0.004 -0.185,-0.835 -0.532,-1.246 -0.347,-0.412 -0.589,-0.476 -0.863,-0.605 -0.926,-0.436 -0.894,-0.555 -0.444,-0.66 -0.622,-0.371 -1.097,-1.32 -1.955,-1.699 -1.092,-0.482 -1.718,-0.921 -2.065,-1.074 -0.348,-0.154 0.311,-0.012 0.719,-0.187 0.009,-0.004 0.019,-0.006 0.029,-0.01 -0.154,-0.057 -0.31,-0.116 -0.472,-0.185 -0.034,0.035 -0.101,0.042 -0.21,0.003 -0.624,-0.224 -1.98,-0.212 -3.172,-0.894 -1.19,-0.684 -2.89,-1.992 -3.841,-2.764 -0.954,-0.772 -1.136,-1.409 -1.6,-1.957 -0.192,-0.227 -0.371,-0.458 -0.467,-0.633 -0.108,-0.048 -0.833,-0.163 -1.75,-0.618 -0.712,-0.353 -3.784,-1.872 -4.36,-2.295 -0.579,-0.422 -3.448,-2.099 -4.639,-2.703 -0.245,-0.125 -0.355,-0.214 -0.37,-0.272 -0.213,-0.079 -0.417,-0.158 -0.568,-0.225 -0.171,0.04 -0.333,0.035 -0.53,-0.055 -0.41,-0.186 -0.882,0.072 -1.301,-0.356 -0.417,-0.429 -0.745,-0.577 -1.024,-0.488 -0.279,0.09 -0.879,0.193 -0.848,-0.089 0.03,-0.284 0.65,-0.951 0.941,-0.72 0.194,0.156 0.417,0.161 0.657,0.242 0.134,-0.198 0.214,-0.074 -0.092,-0.544 -0.17,-0.316 -0.334,-0.39 -0.667,-0.701 -0.333,-0.31 -1.369,-1.093 -1.542,-1.408 -0.17,-0.317 -0.098,-0.534 0.144,-0.542 0.239,-0.009 0.695,0.324 0.945,0.556 0.249,0.232 0.628,0.704 0.956,0.853 0.327,0.15 0.486,0.104 0.236,-0.17 -0.252,-0.272 -0.677,-0.901 -1.052,-1.291 -0.376,-0.391 -0.622,-0.898 -0.24,-1.106 0.262,-0.144 0.538,0.412 0.709,0.727 0.173,0.316 0.588,0.663 0.882,1.016 0.294,0.351 0.587,0.274 0.376,-0.041 -0.215,-0.314 -0.786,-1.274 -0.881,-1.713 -0.096,-0.44 0.075,-0.889 0.372,-0.496 0.296,0.391 0.37,0.979 0.748,1.449 0.38,0.471 0.502,0.52 0.657,0.353 0.017,-0.018 0.032,-0.015 0.047,-0.007 0.039,-0.306 0.098,-0.699 0.147,-1.01 -0.157,-0.453 -0.145,-0.786 -0.058,-1.27 0.099,-0.567 0.564,0.035 0.607,0.891 0.037,0.726 0.109,0.802 0.28,1.077 0.17,0.278 0.657,1.468 1.006,2.301 0.352,0.833 0.067,0.723 0.32,0.995 0.25,0.275 0.293,0.353 2.857,1.147 1.766,0.547 3.892,1.535 5.366,2.312 0.678,0.287 1.299,0.577 1.512,0.869 0,0 0.529,0.444 0.613,0.485 0.248,-0.081 0.859,0.121 0.866,0.348 0.191,0.118 1.214,1.169 1.672,1.461 0.458,0.291 2.084,0.802 2.667,1.11 0.583,0.306 1.208,0.598 2.295,1.337 1.063,0.722 1.775,1.186 1.872,1.706 0.071,0.362 0.215,1.345 0.441,1.784 0.225,0.438 0.478,0.829 0.526,1.243 0.075,-0.099 0.196,-0.252 0.336,-0.431 -0.108,-0.156 -0.117,-0.435 0.018,-0.89 -0.097,0.319 0.147,-1.143 0.345,-1.693 0.169,-0.466 1.168,-2.624 1.459,-3.083 0.291,-0.458 0.427,-2.401 0.636,-3.868 -0.107,-0.632 -0.208,-2.219 -0.136,-2.423 0.336,-2.563 0.015,-2.233 0.033,-2.313 -0.119,-0.202 -0.797,-0.959 -1.158,-1.201 -6.269,-4.181 -9.871,-9.544 -10.678,-11.971 -0.3,-0.903 -0.547,-1.807 -0.304,-2.513 0.046,-0.134 0.104,-0.25 0.165,-0.353 0.004,-0.018 0.003,-0.036 0.009,-0.053 0.098,-0.315 0.358,-0.429 0.714,-0.409 0.502,-0.283 1.267,-0.48 1.539,-0.399 0.566,0.169 4.307,2.674 6.649,5.169 1.271,1.351 2.321,3.126 3.13,5.655 0.15,0.471 0.385,1.683 0.275,2.971 0.309,-0.724 0.625,-3.437 0.184,-4.653 -1.09,-3.001 -2.629,-4.289 -2.392,-4.389 0.199,-0.082 1.393,-0.031 2.451,0.951 1.004,0.936 3.871,3.657 4.084,4.982 0.266,0.621 0.354,1.095 0.673,1.734 0.179,0.358 0.324,0.551 0.418,0.612 -0.228,-0.825 -1.093,-4.168 -0.832,-6.703 0.3,-2.91 -0.385,-5.138 0.176,-3.868 0.233,0.53 0.638,1.773 0.593,3.6 -10e-4,0.027 -10e-4,0.059 -10e-4,0.088 0.021,0.031 0.044,0.081 0.068,0.173 0.28,1.039 1.458,4.782 2.4,6.359 0.941,1.576 3.221,4.545 3.262,5.684 0.011,0.302 -0.656,-0.547 -1.467,-1.628 -0.179,-0.058 -0.17,0.203 -0.126,0.439 0.009,0.023 0.033,0.051 0.039,0.072 0.233,0.39 0.503,0.728 0.763,1.014 0.538,0.539 1.201,1.074 1.457,1.221 0.438,0.25 0.744,1.26 0.25,2 -0.12,0.179 0.217,0.305 0.246,1.704 0.091,0.984 0.138,2.137 0.058,2.197 0.004,0.352 0.001,0.688 -0.018,0.961 0.009,0.618 0.011,1.367 -0.021,2.011 -0.002,0.05 -0.008,0.069 -0.012,0.104 0.102,0.312 0.233,0.658 0.351,0.967 0.116,0.081 0.263,0.305 0.357,0.592 C 0.159,-1.932 0,0 0,0"
         style="fill:#8b8d90;fill-opacity:1;fill-rule:nonzero;stroke:none"
         id="path4427"
         inkscape:connector-curvature="0" /></g><g
       style="filter:url(#filter4252);fill:#8b8d90;fill-opacity:1"
       id="g4429"
       transform="matrix(10.156095,0,0,10.156095,517.60598,683.35367)"><path
         d="M 0,0 C 1.197,0.36 2.618,0.436 3.974,0.228 5.33,0.021 7.263,-0.231 7.981,-0.496 8.699,-0.762 10.057,-1.655 10.364,-1.785 10.671,-1.913 9.993,-1.81 8.879,-1.884 7.766,-1.957 5.247,-1.082 4.359,-0.962 3.472,-0.842 1.808,-0.506 1.18,-0.457 0.55,-0.41 -0.702,-0.211 0,0"
         style="fill:#8b8d90;fill-opacity:1;fill-rule:nonzero;stroke:none"
         id="path4431"
         inkscape:connector-curvature="0" /></g><g
       style="filter:url(#filter4252);fill:#8b8d90;fill-opacity:1"
       id="g4433"
       transform="matrix(10.156095,0,0,10.156095,545.5454,668.99193)"><path
         d="m 0,0 c -1.277,-0.321 -1.971,-0.121 -2.893,-0.474 -0.924,-0.353 -0.831,0.168 -0.178,0.435 0.653,0.268 1.77,0.394 2.346,0.352 C -0.147,0.269 0.485,0.122 0,0"
         style="fill:#8b8d90;fill-opacity:1;fill-rule:nonzero;stroke:none"
         id="path4435"
         inkscape:connector-curvature="0" /></g><g
       style="filter:url(#filter4252);fill:#8b8d90;fill-opacity:1"
       id="g4437"
       transform="matrix(10.156095,0,0,10.156095,547.32068,660.45269)"><path
         d="M 0,0 C 0.761,-0.116 2.691,-1.042 1.905,-1.396 1.117,-1.75 0.228,-1.51 -0.777,-1.442 c -1.006,0.067 -0.755,0.64 -1.934,0.448 -1.18,-0.191 -0.879,0.376 -0.558,0.581 C -2.949,-0.208 -1.597,0.244 0,0"
         style="fill:#8b8d90;fill-opacity:1;fill-rule:nonzero;stroke:none"
         id="path4439"
         inkscape:connector-curvature="0" /></g><g
       style="filter:url(#filter4252);fill:#8b8d90;fill-opacity:1"
       id="g4441"
       transform="matrix(10.156095,0,0,10.156095,554.85854,663.48835)"><path
         d="m 0,0 c 1.138,-0.246 1.57,-1.247 2.769,-1.536 1.196,-0.29 2.842,-0.258 3.196,-0.487 0.354,-0.228 0.953,-0.018 0.953,-0.018 0,0 -0.306,0.836 -1.072,1.196 C 5.078,-0.484 2.847,0.136 1.635,0.223 0.422,0.311 -0.326,0.07 0,0"
         style="fill:#8b8d90;fill-opacity:1;fill-rule:nonzero;stroke:none"
         id="path4443"
         inkscape:connector-curvature="0" /></g><g
       style="filter:url(#filter4252);fill:#8b8d90;fill-opacity:1"
       id="g4445"
       transform="matrix(10.156095,0,0,10.156095,754.90517,634.43785)"><path
         d="M 0,0 C 0.02,0.632 -0.204,1.789 -0.892,2.258 -0.969,2.519 -1.38,2.69 -1.43,2.974 -1.484,3.301 -1.593,3.471 -1.859,3.691 -2.125,3.914 -2.302,3.726 -2.155,3.513 -2.011,3.3 -2.243,2.874 -2.087,2.822 -1.929,2.77 -1.874,2.684 -1.829,2.195 -1.943,2.054 -1.898,2 -2.021,1.941 -2.13,1.965 -2.271,1.977 -2.461,1.962 -2.968,2.127 -4.994,2.183 -5.973,2.479 -6.075,2.543 -7.771,2.9 -8.767,3.245 c -0.998,0.345 -5.111,0.323 -5.343,0.357 0,0 1.505,-0.916 1.222,-1.16 0,0 -0.192,-0.46 0.11,-0.64 0.303,-0.181 0.203,-0.807 1.402,-1.003 1.199,-0.195 6.535,-0.07 7.472,-0.247 C -3.896,0.55 -3.888,0.55 -3.88,0.548 l 0.179,-0.053 c 0.607,-0.115 1.163,-0.069 1.356,0.044 0.485,-0.141 0.597,-0.31 0.819,-0.464 0.115,-0.08 0.216,-0.141 0.318,-0.205 0.176,-0.393 0.15,-0.749 0.191,-0.831 0.053,-0.156 0.032,-0.266 0.204,-0.217 0.028,-0.025 0.055,0.021 0.077,0.083 0.064,0.111 0.124,0.308 0.166,0.467 0.096,-0.125 0.167,-0.266 0.166,-0.471 -0.005,-0.606 0.173,-1.425 0.154,-1.707 -0.022,-0.28 0.479,-0.036 0.481,1.053 C 0.234,-0.663 0.134,-0.373 0,0"
         style="fill:#8b8d90;fill-opacity:1;fill-rule:nonzero;stroke:none"
         id="path4447"
         inkscape:connector-curvature="0" /></g><g
       style="filter:url(#filter4252);fill:#8b8d90;fill-opacity:1"
       id="g4449"
       transform="matrix(10.156095,0,0,10.156095,526.50272,668.99193)"><path
         d="m 0,0 c 0.042,-0.25 -1.083,-1 0,-0.875 1.083,0.125 -0.958,-0.833 -0.958,-0.833 0,0 -0.709,-0.084 -0.792,-1 -0.083,-0.917 -0.875,0.125 -0.708,0.625 0.166,0.5 0.207,1.5 0.916,1.833 0.709,0.333 1.5,0.5 1.542,0.25"
         style="fill:#8b8d90;fill-opacity:1;fill-rule:nonzero;stroke:none"
         id="path4451"
         inkscape:connector-curvature="0" /></g></g></svg>